<svg width="24" height="24" viewBox="0 0 24 24" fill="none" xmlns="http://www.w3.org/2000/svg">
  <path d="M12 3.5C7.30558 3.5 3.5 7.30558 3.5 12C3.5 16.6944 7.30558 20.5 12 20.5C16.6944 20.5 20.5 16.6944 20.5 12C20.5 7.30558 16.6944 3.5 12 3.5Z" stroke="currentColor" stroke-width="1.5"/>
  <path d="M3.5 12H20.5" stroke="currentColor" stroke-width="1.5"/>
  <path d="M12 3.5V20.5" stroke="currentColor" stroke-width="1.5"/>
  <path d="M7.5 7.5C7.5 7.5 9.5 9 12 9C14.5 9 16.5 7.5 16.5 7.5" stroke="currentColor" stroke-width="1.5" stroke-linecap="round"/>
  <path d="M16.5 16.5C16.5 16.5 14.5 15 12 15C9.5 15 7.5 16.5 7.5 16.5" stroke="currentColor" stroke-width="1.5" stroke-linecap="round"/>
</svg>
