<svg width="24" height="24" viewBox="0 0 24 24" fill="none" xmlns="http://www.w3.org/2000/svg">
  <path d="M4 5C4 4.44772 4.44772 4 5 4H19C19.5523 4 20 4.44772 20 5V7C20 7.55228 19.5523 8 19 8H5C4.44772 8 4 7.55228 4 7V5Z" fill="currentColor"/>
  <path d="M4 11C4 10.4477 4.44772 10 5 10H13C13.5523 10 14 10.4477 14 11V19C14 19.5523 13.5523 20 13 20H5C4.44772 20 4 19.5523 4 19V11Z" fill="currentColor"/>
  <path d="M16 11C16 10.4477 16.4477 10 17 10H19C19.5523 10 20 10.4477 20 11V19C20 19.5523 19.5523 20 19 20H17C16.4477 20 16 19.5523 16 19V11Z" fill="currentColor"/>
</svg>
