<svg width="197" height="43" viewBox="0 0 197 43" fill="none" xmlns="http://www.w3.org/2000/svg">
<path d="M3 3C1.34315 3 0 4.34315 0 6V16.6169C1.98436 16.7781 3.82532 17.0777 5.59828 17.6305C9.98621 18.9986 13.8343 21.856 18.6389 27.4613C23.133 32.7044 26.9929 34.8789 32 35.9375C33.3771 36.2286 35.5 36.4375 36.5 36.4375C37.5 36.4375 38 36.5656 38 35.6562V6C38 4.34315 36.6569 3 35 3H3Z" fill="black"/>
<path d="M28.5 41C24.805 39.4386 19.7581 36.9393 16.3611 32.9762C11.7371 27.5815 8.37993 24.9131 4.75 23.7812C3.27768 23.3222 1.70298 23.3365 0 23.1883V38C0 39.6569 1.34315 41 3 41H28.5Z" fill="black"/>
<path d="M54.48 20.384H65.604V24.056H54.48V35H50.196V9.26H68.196V12.896H54.48V20.384ZM70.9658 9.26H74.7818V35H70.9658V9.26ZM86.7323 35.54C80.9723 35.54 77.4803 31.544 77.4803 25.82C77.4803 20.096 80.9723 16.1 86.7323 16.1C92.4923 16.1 95.9843 20.096 95.9843 25.82C95.9843 31.544 92.4923 35.54 86.7323 35.54ZM86.7323 32.444C90.3323 32.444 92.2043 29.6 92.2043 25.82C92.2043 22.004 90.3323 19.196 86.7323 19.196C83.1323 19.196 81.2603 22.004 81.2603 25.82C81.2603 29.6 83.1323 32.444 86.7323 32.444ZM96.4118 16.604H100.408L104.152 30.572H104.224L107.968 16.604H111.676L115.456 30.572H115.528L119.236 16.604H123.232L117.616 35H113.8L109.84 20.96H109.768L105.844 35H102.064L96.4118 16.604ZM134.273 12.356C131.825 12.248 130.889 12.5 130.889 14.588V16.604H134.273V19.7H130.889V35H127.073V19.7H124.445V16.604H127.073V14.264C127.073 10.376 128.729 9.008 131.753 9.008C132.689 9.008 133.517 9.116 134.273 9.26V12.356ZM144.529 35.54C138.769 35.54 135.277 31.544 135.277 25.82C135.277 20.096 138.769 16.1 144.529 16.1C150.289 16.1 153.781 20.096 153.781 25.82C153.781 31.544 150.289 35.54 144.529 35.54ZM144.529 32.444C148.129 32.444 150.001 29.6 150.001 25.82C150.001 22.004 148.129 19.196 144.529 19.196C140.929 19.196 139.057 22.004 139.057 25.82C139.057 29.6 140.929 32.444 144.529 32.444ZM165.142 16.172C165.79 16.172 166.258 16.208 166.798 16.28V19.844H166.726C163.09 19.232 160.174 21.68 160.174 25.604V35H156.394V16.604H160.174V20.06H160.246C161.218 17.756 162.73 16.172 165.142 16.172ZM189.53 16.1C193.238 16.1 195.146 18.332 195.146 22.292V35H191.33V23.372C191.33 20.888 190.826 19.304 188.234 19.304C185.678 19.304 184.094 21.068 184.094 23.804V35H180.278V23.372C180.278 20.888 179.774 19.304 177.146 19.304C174.626 19.304 173.006 21.068 173.006 23.804V35H169.226V16.604H173.006V18.98H173.078C174.05 17.54 175.778 16.1 178.55 16.1C181.142 16.1 182.69 17.288 183.446 19.268H183.518C184.886 17.504 186.686 16.1 189.53 16.1Z" fill="black"/>
</svg>
