<svg width="196" height="38" viewBox="0 0 196 38" fill="none" xmlns="http://www.w3.org/2000/svg">
<path d="M3 0C1.34315 0 0 1.34315 0 3V17.1794C1.98436 17.3406 3.82532 17.6402 5.59828 18.193C9.98621 19.5611 13.8343 22.4185 18.6389 28.0238C23.133 33.2669 26.9929 35.4414 32 36.5C33.3771 36.7911 35.5 37 36.5 37C37.5 37 38 35.9093 38 35V3C38 1.34315 36.6569 0 35 0H3Z" fill="black"/>
<path d="M26.9613 38C23.2662 36.4386 19.7581 33.9393 16.3611 29.9762C11.7371 24.5815 8.33521 22.1888 4.70528 21.057C3.23295 20.5979 1.70298 20.3365 0 20.1883V35C0 36.6569 1.34315 38 3 38H26.9613Z" fill="black"/>
<path d="M54.48 18.384H65.604V22.056H54.48V33H50.196V7.26H68.196V10.896H54.48V18.384Z" fill="black"/>
<path d="M70.9658 7.26H74.7818V33H70.9658V7.26Z" fill="black"/>
<path d="M86.7323 33.54C80.9723 33.54 77.4803 29.544 77.4803 23.82C77.4803 18.096 80.9723 14.1 86.7323 14.1C92.4923 14.1 95.9843 18.096 95.9843 23.82C95.9843 29.544 92.4923 33.54 86.7323 33.54ZM86.7323 30.444C90.3323 30.444 92.2043 27.6 92.2043 23.82C92.2043 20.004 90.3323 17.196 86.7323 17.196C83.1323 17.196 81.2603 20.004 81.2603 23.82C81.2603 27.6 83.1323 30.444 86.7323 30.444Z" fill="black"/>
<path d="M96.4118 14.604H100.408L104.152 28.572H104.224L107.968 14.604H111.676L115.456 28.572H115.528L119.236 14.604H123.232L117.616 33H113.8L109.84 18.96H109.768L105.844 33H102.064L96.4118 14.604Z" fill="black"/>
<path d="M134.273 10.356C131.825 10.248 130.889 10.5 130.889 12.588V14.604H134.273V17.7H130.889V33H127.073V17.7H124.445V14.604H127.073V12.264C127.073 8.376 128.729 7.008 131.753 7.008C132.689 7.008 133.517 7.116 134.273 7.26V10.356Z" fill="black"/>
<path d="M144.529 33.54C138.769 33.54 135.277 29.544 135.277 23.82C135.277 18.096 138.769 14.1 144.529 14.1C150.289 14.1 153.781 18.096 153.781 23.82C153.781 29.544 150.289 33.54 144.529 33.54ZM144.529 30.444C148.129 30.444 150.001 27.6 150.001 23.82C150.001 20.004 148.129 17.196 144.529 17.196C140.929 17.196 139.057 20.004 139.057 23.82C139.057 27.6 140.929 30.444 144.529 30.444Z" fill="black"/>
<path d="M165.142 14.172C165.79 14.172 166.258 14.208 166.798 14.28V17.844H166.726C163.09 17.232 160.174 19.68 160.174 23.604V33H156.394V14.604H160.174V18.06H160.246C161.218 15.756 162.73 14.172 165.142 14.172Z" fill="black"/>
<path d="M189.53 14.1C193.238 14.1 195.146 16.332 195.146 20.292V33H191.33V21.372C191.33 18.888 190.826 17.304 188.234 17.304C185.678 17.304 184.094 19.068 184.094 21.804V33H180.278V21.372C180.278 18.888 179.774 17.304 177.146 17.304C174.626 17.304 173.006 19.068 173.006 21.804V33H169.226V14.604H173.006V16.98H173.078C174.05 15.54 175.778 14.1 178.55 14.1C181.142 14.1 182.69 15.288 183.446 17.268H183.518C184.886 15.504 186.686 14.1 189.53 14.1Z" fill="black"/>
</svg>
